<svg width="108" height="24" viewBox="0 0 108 24" fill="none" xmlns="http://www.w3.org/2000/svg">
<path d="M44.7433 5.01695V18.7458H42.3756V7.97246H42.344L38.1136 18.7458H36.5351L32.2099 7.97246H32.1784V18.7458H30V5.01695H33.4096L37.3243 15.1864H37.3875L41.5232 5.01695H44.7433ZM46.7007 6.06568C46.7007 5.68432 46.827 5.36653 47.1111 5.11229C47.3952 4.85805 47.7109 4.73093 48.0898 4.73093C48.5002 4.73093 48.8475 4.85805 49.1 5.14407C49.3526 5.39831 49.5105 5.7161 49.5105 6.09746C49.5105 6.47881 49.3842 6.79661 49.1 7.05085C48.8159 7.30508 48.5002 7.4322 48.0898 7.4322C47.6794 7.4322 47.3637 7.30508 47.1111 7.05085C46.8585 6.73305 46.7007 6.41525 46.7007 6.06568ZM49.2579 8.89407V18.7458H46.9533V8.89407H49.2579ZM56.2349 17.0614C56.5822 17.0614 56.961 16.9661 57.3715 16.8072C57.7819 16.6483 58.1607 16.4258 58.508 16.1716V18.3326C58.1292 18.5551 57.7187 18.714 57.2452 18.8093C56.7716 18.9047 56.2665 18.9682 55.6982 18.9682C54.246 18.9682 53.0779 18.5233 52.1939 17.6017C51.2784 16.6801 50.8364 15.5042 50.8364 14.1059C50.8364 12.5169 51.31 11.214 52.2255 10.197C53.141 9.1801 54.4354 8.67161 56.1402 8.67161C56.5822 8.67161 56.9926 8.73517 57.4346 8.83051C57.8766 8.95763 58.2239 9.0847 58.4764 9.2119V11.4364C58.1292 11.1822 57.7503 10.9597 57.403 10.8326C57.0242 10.6737 56.6453 10.6102 56.2665 10.6102C55.351 10.6102 54.6248 10.8962 54.0566 11.5C53.4883 12.1038 53.2042 12.8983 53.2042 13.9153C53.2042 14.9004 53.4567 15.6949 53.9934 16.2352C54.5933 16.7754 55.3194 17.0614 56.2349 17.0614ZM65.0431 8.73517C65.2325 8.73517 65.3903 8.73517 65.5482 8.76695C65.706 8.79873 65.8323 8.83051 65.927 8.86229V11.214C65.8007 11.1186 65.6429 11.0551 65.3903 10.9597C65.1693 10.8644 64.8852 10.8326 64.5379 10.8326C63.9697 10.8326 63.4961 11.0869 63.1173 11.5636C62.7384 12.0403 62.5174 12.7712 62.5174 13.7881V18.7458H60.2128V8.89407H62.5174V10.4513H62.549C62.77 9.911 63.0857 9.4979 63.4961 9.1801C63.9381 8.89407 64.4432 8.73517 65.0431 8.73517ZM66.0533 13.9788C66.0533 12.3581 66.4953 11.0551 67.4108 10.1017C68.3264 9.1483 69.5892 8.67161 71.2308 8.67161C72.7462 8.67161 73.9459 9.1165 74.7983 10.0381C75.6507 10.9597 76.0927 12.1992 76.0927 13.7564C76.0927 15.3453 75.6507 16.6165 74.7351 17.5699C73.8196 18.5233 72.5884 19 71.0098 19C69.4945 19 68.2948 18.5551 67.4108 17.6653C66.4953 16.7436 66.0533 15.5042 66.0533 13.9788ZM68.4526 13.8835C68.4526 14.9004 68.6736 15.6949 69.1472 16.2352C69.6207 16.7754 70.2837 17.0614 71.1361 17.0614C71.9885 17.0614 72.6199 16.7754 73.0619 16.2352C73.5039 15.6949 73.7249 14.9004 73.7249 13.8199C73.7249 12.7712 73.5039 11.9767 73.0303 11.4364C72.5884 10.8962 71.957 10.6419 71.1361 10.6419C70.2837 10.6419 69.6523 10.928 69.1788 11.5C68.6736 12.0403 68.4526 12.8347 68.4526 13.8835ZM79.5023 11.5C79.5023 11.8178 79.597 12.1038 79.818 12.2945C80.039 12.4852 80.4809 12.7076 81.2071 12.9936C82.1226 13.375 82.7856 13.7881 83.1328 14.2331C83.5117 14.7097 83.7011 15.25 83.7011 15.9174C83.7011 16.839 83.3538 17.6017 82.6277 18.1419C81.9332 18.714 80.9545 19 79.7548 19C79.3444 19 78.9024 18.9364 78.3973 18.8411C77.8922 18.7458 77.4818 18.6186 77.1345 18.4597V16.1716C77.5449 16.4576 78.0185 16.7119 78.492 16.8708C78.9656 17.0297 79.4075 17.125 79.818 17.125C80.3231 17.125 80.7335 17.0614 80.9545 16.9025C81.2071 16.7436 81.3333 16.5212 81.3333 16.1716C81.3333 15.8538 81.2071 15.5678 80.9545 15.3771C80.7019 15.1547 80.1968 14.9004 79.5023 14.6144C78.6499 14.2648 78.05 13.8517 77.7027 13.4068C77.3555 12.9619 77.1661 12.3898 77.1661 11.6907C77.1661 10.8008 77.5133 10.0699 78.2079 9.4979C78.9024 8.92585 79.818 8.63983 80.9229 8.63983C81.2702 8.63983 81.649 8.67161 82.0595 8.76695C82.4699 8.83051 82.8487 8.95763 83.1328 9.053V11.2458C82.8171 11.0551 82.4699 10.8644 82.0595 10.7055C81.649 10.5466 81.2386 10.4831 80.8598 10.4831C80.4178 10.4831 80.0705 10.5784 79.8495 10.7373C79.6285 10.9597 79.5023 11.1822 79.5023 11.5ZM84.6798 13.9788C84.6798 12.3581 85.1218 11.0551 86.0373 10.1017C86.9529 9.1483 88.2157 8.67161 89.8573 8.67161C91.3727 8.67161 92.5724 9.1165 93.4248 10.0381C94.2772 10.9597 94.7192 12.1992 94.7192 13.7564C94.7192 15.3453 94.2772 16.6165 93.3616 17.5699C92.4461 18.5233 91.2148 19 89.6363 19C88.121 19 86.9213 18.5551 86.0373 17.6653C85.1533 16.7436 84.6798 15.5042 84.6798 13.9788ZM87.0791 13.8835C87.0791 14.9004 87.3001 15.6949 87.7737 16.2352C88.2472 16.7754 88.9102 17.0614 89.7626 17.0614C90.615 17.0614 91.2464 16.7754 91.6884 16.2352C92.1304 15.6949 92.3514 14.9004 92.3514 13.8199C92.3514 12.7712 92.1304 11.9767 91.6568 11.4364C91.2148 10.8962 90.5834 10.6419 89.7626 10.6419C88.9102 10.6419 88.2788 10.928 87.8052 11.5C87.3317 12.0403 87.0791 12.8347 87.0791 13.8835ZM102.359 10.8008H98.918V18.7458H96.5818V10.8008H94.9401V8.89407H96.5818V7.52754C96.5818 6.47881 96.9291 5.65254 97.592 4.98517C98.255 4.3178 99.1074 4 100.149 4C100.433 4 100.686 4 100.907 4.03178C101.128 4.06356 101.317 4.09534 101.475 4.1589V6.16102C101.412 6.12924 101.254 6.06568 101.065 6.00212C100.875 5.93856 100.654 5.90678 100.402 5.90678C99.9283 5.90678 99.5494 6.06568 99.2968 6.3517C99.0443 6.66949 98.918 7.11441 98.918 7.68644V8.86229H102.359V6.63771L104.664 5.93856V8.86229H107V10.7691H104.664V15.3771C104.664 15.9809 104.759 16.4258 104.98 16.6483C105.2 16.9025 105.548 17.0297 106.021 17.0297C106.148 17.0297 106.305 16.9979 106.495 16.9343C106.684 16.8708 106.842 16.8072 107 16.7119V18.6186C106.842 18.714 106.621 18.7775 106.274 18.8411C105.927 18.9047 105.611 18.9364 105.264 18.9364C104.285 18.9364 103.559 18.6822 103.085 18.1419C102.612 17.6335 102.359 16.839 102.359 15.7903V10.8008Z" fill="white"/>
<g clip-path="url(#clip0)">
<path d="M10.4561 1H0V11.4561H10.4561V1Z" fill="#F25022"/>
<path d="M22.0001 1H11.5439V11.4561H22.0001V1Z" fill="#7FBA00"/>
<path d="M10.4561 12.5439H0V23H10.4561V12.5439Z" fill="#00A4EF"/>
<path d="M22.0001 12.5439H11.5439V23H22.0001V12.5439Z" fill="#FFB900"/>
</g>
<defs>
<clipPath id="clip0">
<rect width="22" height="22" fill="white" transform="translate(0 1)"/>
</clipPath>
</defs>
</svg>
